<?xml version="1.0" encoding="utf-8"?>
<!-- Svg Vector Icons : http://www.onlinewebfonts.com/icon -->
<!DOCTYPE svg PUBLIC "-//W3C//DTD SVG 1.1//EN" "http://www.w3.org/Graphics/SVG/1.1/DTD/svg11.dtd">
<svg version="1.1" xmlns="http://www.w3.org/2000/svg" xmlns:xlink="http://www.w3.org/1999/xlink" x="0px" y="0px" viewBox="0 0 1000 1000" enable-background="new 0 0 1000 1000" xml:space="preserve">
<metadata> Svg Vector Icons : http://www.onlinewebfonts.com/icon </metadata>
<g><g><path fill="#373737" d="M458.4,699.6l-178.3,67.3l69.5-177.4L458.4,699.6z M990,175.9l-46.8-47.4L431.1,634.2l46.8,47.5l274.9-271.5v491.2H93V98.6h659.7v89.9h1.2L367.7,570.1l46.9,47.4l512.1-505.8l-46.8-47.4l-44,43.4V57.1c0-23-18.6-41.5-41.5-41.5H51.5C28.6,15.6,10,34.1,10,57.1v885.8c0,23,18.6,41.5,41.5,41.5h742.8c22.9,0,41.5-18.6,41.5-41.5V338.5h-10.4L990,175.9z M208.4,246.2h401.4c15.4,0,27.7-12.4,27.7-27.7c0-15.3-12.3-27.7-27.7-27.7H208.4c-15.3,0-27.7,12.4-27.7,27.7C180.7,233.8,193.1,246.2,208.4,246.2z M208.4,403.1H444c15.3,0,27.7-12.4,27.7-27.7c0-15.3-12.4-27.7-27.7-27.7H208.4c-15.3,0-27.7,12.4-27.7,27.7C180.7,390.7,193.1,403.1,208.4,403.1z"/></g><g></g><g></g><g></g><g></g><g></g><g></g><g></g><g></g><g></g><g></g><g></g><g></g><g></g><g></g><g></g></g>
</svg>